<svg xmlns="http://www.w3.org/2000/svg" width="50" height="49.983" viewBox="0 0 50 49.983">
    <defs>
        <style>
            .cls-1{fill:#ff3a3a}
        </style>
    </defs>
    <g id="analysis" transform="translate(0 -.08)">
        <g id="Group_990" data-name="Group 990" transform="translate(3.351 3.415)">
            <g id="Group_989" data-name="Group 989">
                <path id="Path_1374" d="M49.675 32.106A17.493 17.493 0 1 0 67.169 49.6a17.493 17.493 0 0 0-17.494-17.494zm0 1.666A15.811 15.811 0 0 1 62.6 40.494l-2.083 2.083a3.287 3.287 0 0 0-1.679-.475 3.332 3.332 0 0 0-3.332 3.332 3.288 3.288 0 0 0 .472 1.682l-5.455 5.455a3.231 3.231 0 0 0-3.364 0l-3.789-3.789a3.288 3.288 0 0 0 .472-1.682 3.325 3.325 0 0 0-6.546-.833h-3.09a15.85 15.85 0 0 1 15.469-12.495zM60.5 45.434a1.666 1.666 0 1 1-1.666-1.666 1.666 1.666 0 0 1 1.666 1.666zm-10 10a1.666 1.666 0 1 1-1.666-1.666 1.666 1.666 0 0 1 1.674 1.662zm-8.33-8.33a1.666 1.666 0 1 1-1.666-1.666 1.666 1.666 0 0 1 1.674 1.662zm15.196 16.334a15.824 15.824 0 0 1-23.429-15.505H37.3a3.332 3.332 0 0 0 3.214 2.5 3.288 3.288 0 0 0 1.682-.472l3.789 3.789a3.288 3.288 0 0 0-.472 1.682 3.332 3.332 0 1 0 6.664 0 3.288 3.288 0 0 0-.472-1.682l5.455-5.455a3.288 3.288 0 0 0 1.682.472 3.332 3.332 0 0 0 3.332-3.332 3.288 3.288 0 0 0-.472-1.682l1.816-1.815a15.813 15.813 0 0 1-6.152 21.5z" class="cls-1" data-name="Path 1374" transform="translate(-32.182 -32.106)"/>
            </g>
        </g>
        <g id="Group_992" data-name="Group 992" transform="translate(0 .08)">
            <g id="Group_991" data-name="Group 991">
                <path id="Path_1375" d="M41.67 8.413a3.332 3.332 0 0 0 3.214-2.5H50V4.248h-5.116a3.325 3.325 0 0 0-6.546.833 3.288 3.288 0 0 0 .472 1.682l-1.463 1.464a20.825 20.825 0 1 0-5.2 30.16l2.514 2.513 1.178 1.178 6.706 6.706a4.367 4.367 0 0 0 6.176-6.176L42.015 35.9l-1.178-1.178-2.514-2.514a20.756 20.756 0 0 0 0-22.6l1.666-1.668a3.288 3.288 0 0 0 1.681.473zm0-5A1.666 1.666 0 1 1 40 5.081a1.666 1.666 0 0 1 1.67-1.666zm5.873 40.371a2.7 2.7 0 1 1-3.777 3.864l-.043-.043-6.706-6.705 3.82-3.82zM39.659 35.9l-3.82 3.82-2.306-2.306c.117-.09.227-.189.343-.282s.25-.2.374-.307c.182-.153.362-.308.539-.467.091-.083.177-.167.267-.25q.512-.48.992-.992c.083-.089.167-.176.25-.267.159-.177.314-.357.467-.539q.157-.185.307-.374c.092-.115.191-.225.281-.342zm-3.23-3.869c-.262.367-.533.726-.819 1.071-.083.1-.172.2-.258.3q-.382.445-.79.863-.177.183-.361.361-.417.407-.863.79c-.1.083-.2.174-.3.258-.346.286-.7.556-1.071.819a19.189 19.189 0 1 1 4.459-4.459z" class="cls-1" data-name="Path 1375" transform="translate(0 -.08)"/>
            </g>
        </g>
    </g>
</svg>
