<svg xmlns="http://www.w3.org/2000/svg" id="avatar" width="44.069" height="51.809" viewBox="0 0 44.069 51.809">
    <defs>
        <style>
            .cls-1{fill:#92979b}
        </style>
    </defs>
    <g id="Group_994" data-name="Group 994">
        <path id="Path_1394" d="M148.091 27.916h.343A9.9 9.9 0 0 0 156 24.644c4.131-4.656 3.444-12.638 3.369-13.4-.268-5.718-2.972-8.454-5.2-9.731A11.928 11.928 0 0 0 148.392 0h-.182a11.947 11.947 0 0 0-5.772 1.47c-2.253 1.277-5 4.013-5.268 9.774-.075.762-.762 8.744 3.369 13.4a9.86 9.86 0 0 0 7.552 3.272zm-8.057-16.4c0-.032.011-.064.011-.086.354-7.692 5.815-8.519 8.154-8.519h.129c2.9.064 7.821 1.245 8.154 8.519a.209.209 0 0 0 .011.086c.011.075.762 7.371-2.65 11.212a7.032 7.032 0 0 1-5.525 2.3h-.107a7.009 7.009 0 0 1-5.515-2.3c-3.402-3.828-2.673-11.152-2.662-11.216z" class="cls-1" data-name="Path 1394" transform="translate(-126.245)"/>
        <path id="Path_1395" d="M80.139 272.586v-.032c0-.086-.011-.172-.011-.268-.064-2.124-.2-7.092-4.86-8.68-.032-.011-.075-.021-.107-.032a30.956 30.956 0 0 1-8.9-4.055 1.448 1.448 0 1 0-1.663 2.371 33.415 33.415 0 0 0 9.8 4.474c2.5.891 2.779 3.562 2.854 6.008a2.156 2.156 0 0 0 .011.268 19.475 19.475 0 0 1-.225 3.315c-1.738.987-8.551 4.4-18.915 4.4a39.712 39.712 0 0 1-18.925-4.41 18.435 18.435 0 0 1-.225-3.315c0-.086.011-.172.011-.268.075-2.446.354-5.118 2.854-6.008a33.727 33.727 0 0 0 9.8-4.474 1.448 1.448 0 1 0-1.663-2.371 30.618 30.618 0 0 1-8.9 4.055 1.313 1.313 0 0 0-.107.032c-4.656 1.6-4.8 6.566-4.86 8.68a2.155 2.155 0 0 1-.011.268v.032a16.452 16.452 0 0 0 .547 4.86 1.376 1.376 0 0 0 .558.676c.322.215 8.036 5.128 20.942 5.128s20.621-4.924 20.942-5.128a1.436 1.436 0 0 0 .558-.676 17.261 17.261 0 0 0 .495-4.85z" class="cls-1" data-name="Path 1395" transform="translate(-36.073 -231.431)"/>
    </g>
</svg>
