<svg xmlns="http://www.w3.org/2000/svg" id="facebook-logo" width="10.027" height="18.545" viewBox="0 0 10.027 18.545">
    <defs>
        <style>
            .cls-1{fill:#434343}
        </style>
    </defs>
    <path id="Path_1261" d="M31.726 0h-2.4a4.223 4.223 0 0 0-4.448 4.564v2.1h-2.423a.378.378 0 0 0-.378.378V10.1a.378.378 0 0 0 .378.378h2.418v7.693a.378.378 0 0 0 .378.378h3.155a.378.378 0 0 0 .378-.378v-7.697h2.827a.378.378 0 0 0 .378-.378V7.047a.378.378 0 0 0-.378-.378h-2.827V4.884c0-.857.2-1.293 1.321-1.293h1.62a.378.378 0 0 0 .378-.378V.382A.378.378 0 0 0 31.726 0z" class="cls-1" data-name="Path 1261" transform="translate(-22.077)"/>
</svg>
