<svg xmlns="http://www.w3.org/2000/svg" id="instagram-social-network-logo-of-photo-camera" width="21.412" height="21.412" viewBox="0 0 21.412 21.412">
    <defs>
        <style>
            .cls-1{fill:#434343}
        </style>
    </defs>
    <path id="Path_1263" d="M2.748 0h15.916a2.683 2.683 0 0 1 2.748 2.748v15.916a2.683 2.683 0 0 1-2.748 2.748H2.748A2.683 2.683 0 0 1 0 18.664V2.748A2.683 2.683 0 0 1 2.748 0zM15.6 2.379a.966.966 0 0 0-.964.964V5.65a.966.966 0 0 0 .964.964h2.42a.967.967 0 0 0 .964-.964V3.343a.967.967 0 0 0-.964-.964zm3.394 6.676h-1.886a6.263 6.263 0 0 1 .275 1.837 6.555 6.555 0 0 1-6.656 6.449 6.554 6.554 0 0 1-6.655-6.449 6.252 6.252 0 0 1 .275-1.837H2.379V18.1a.854.854 0 0 0 .851.851h14.911a.854.854 0 0 0 .851-.851V9.055zm-8.268-2.562a4.235 4.235 0 0 0-4.3 4.167 4.235 4.235 0 0 0 4.3 4.167 4.235 4.235 0 0 0 4.3-4.167 4.235 4.235 0 0 0-4.3-4.167z" class="cls-1" data-name="Path 1263"/>
</svg>
