<svg xmlns="http://www.w3.org/2000/svg" id="three-layers" width="48.154" height="51.294" viewBox="0 0 48.154 51.294">
    <defs>
        <style>
            .cls-1{fill:#92979b}
        </style>
    </defs>
    <path id="Path_1396" d="M8.585 14.912l22.564 12.065a1.513 1.513 0 0 0 1.426 0l22.564-12.065a1.513 1.513 0 0 0 0-2.668L32.575.178a1.512 1.512 0 0 0-1.426 0L8.585 12.244a1.513 1.513 0 0 0 0 2.668zM31.862 3.228l19.356 10.35-19.356 10.35-19.356-10.35z" class="cls-1" data-name="Path 1396" transform="translate(-7.785 .001)"/>
    <path id="Path_1397" d="M55.139 105.832l-6.578-3.517a1.513 1.513 0 1 0-1.426 2.668l4.083 2.183-19.356 10.35-19.356-10.35 4.13-2.209a1.513 1.513 0 1 0-1.426-2.668l-6.625 3.542a1.513 1.513 0 0 0 0 2.668l22.564 12.065a1.513 1.513 0 0 0 1.426 0L55.139 108.5a1.513 1.513 0 0 0 0-2.668z" class="cls-1" data-name="Path 1397" transform="translate(-7.785 -81.515)"/>
    <path id="Path_1398" d="M55.139 166.192l-6.369-3.406a1.513 1.513 0 1 0-1.426 2.668l3.874 2.072-19.356 10.35-19.356-10.35 3.832-2.049a1.513 1.513 0 1 0-1.426-2.668l-6.327 3.383a1.513 1.513 0 0 0 0 2.668l22.564 12.065a1.513 1.513 0 0 0 1.426 0l22.564-12.065a1.513 1.513 0 0 0 0-2.668z" class="cls-1" data-name="Path 1398" transform="translate(-7.785 -129.81)"/>
</svg>
