<svg width="15" height="15" viewBox="0 0 15 15" fill="none" xmlns="http://www.w3.org/2000/svg">
<path d="M14.113 13.741L10.678 10.306C11.6563 9.11134 12.1379 7.58626 12.0231 6.04639C11.9083 4.50652 11.2059 3.06972 10.0612 2.03334C8.9165 0.996962 7.41719 0.440327 5.87352 0.478629C4.32985 0.516932 2.85998 1.14724 1.76811 2.23912C0.676232 3.33099 0.0459239 4.80085 0.00762116 6.34453C-0.0306815 7.8882 0.525953 9.38751 1.56233 10.5322C2.59872 11.6769 4.03551 12.3793 5.57538 12.4941C7.11525 12.6089 8.64033 12.1273 9.835 11.149L13.27 14.581C13.3252 14.6364 13.3907 14.6803 13.4628 14.7103C13.535 14.7404 13.6123 14.7559 13.6904 14.756C13.7686 14.7562 13.846 14.7409 13.9182 14.7112C13.9905 14.6814 14.0561 14.6377 14.1115 14.5825C14.1669 14.5274 14.2108 14.4618 14.2408 14.3897C14.2709 14.3176 14.2864 14.2402 14.2865 14.1621C14.2867 14.0839 14.2714 14.0065 14.2416 13.9343C14.2119 13.862 14.1682 13.7964 14.113 13.741ZM6.021 11.312C5.06695 11.3116 4.13443 11.0283 3.34137 10.498C2.54831 9.96762 1.93032 9.21402 1.56554 8.33246C1.20076 7.45089 1.10557 6.48096 1.29201 5.5453C1.47845 4.60964 1.93815 3.75028 2.61298 3.07587C3.28781 2.40146 4.14746 1.94229 5.08323 1.75643C6.01901 1.57057 6.98888 1.66636 7.87022 2.03169C8.75156 2.39702 9.50478 3.01548 10.0346 3.80887C10.5645 4.60227 10.8472 5.53496 10.847 6.48901C10.8454 7.76818 10.3364 8.99446 9.43156 9.89869C8.52677 10.8029 7.30017 11.3112 6.021 11.312Z" fill="#cccccc"/>
</svg>
