<svg xmlns="http://www.w3.org/2000/svg" id="settings" width="51.674" height="51.674" viewBox="0 0 51.674 51.674">
    <defs>
        <style>
            .cls-1{fill:#92979b}
        </style>
    </defs>
    <g id="Group_995" data-name="Group 995">
        <path id="Path_1400" d="M49.029 20.414L45.4 19.8a20.48 20.48 0 0 0-1.457-3.519l2.137-2.99a3.182 3.182 0 0 0-.345-4.113L42.52 5.96a3.169 3.169 0 0 0-2.256-.939 3.136 3.136 0 0 0-1.846.594l-3 2.137a20.267 20.267 0 0 0-3.649-1.5l-.6-3.584A3.189 3.189 0 0 0 28.012 0h-4.545a3.189 3.189 0 0 0-3.152 2.666l-.626 3.67a19.975 19.975 0 0 0-3.508 1.479l-2.968-2.136a3.188 3.188 0 0 0-4.113.345L5.872 9.241a3.2 3.2 0 0 0-.345 4.113l2.159 3.033a20 20 0 0 0-1.436 3.53l-3.584.6A3.189 3.189 0 0 0 0 23.673v4.545a3.189 3.189 0 0 0 2.666 3.152l3.67.63a19.975 19.975 0 0 0 1.479 3.5l-2.126 2.962a3.182 3.182 0 0 0 .345 4.113l3.217 3.217a3.169 3.169 0 0 0 2.256.939 3.136 3.136 0 0 0 1.846-.594l3.033-2.159a20.421 20.421 0 0 0 3.411 1.4l.6 3.627a3.189 3.189 0 0 0 3.152 2.666h4.555a3.189 3.189 0 0 0 3.152-2.666l.615-3.627a20.48 20.48 0 0 0 3.529-1.454l2.99 2.137a3.169 3.169 0 0 0 1.857.594 3.169 3.169 0 0 0 2.256-.939l3.212-3.216a3.2 3.2 0 0 0 .345-4.113l-2.137-3a20.333 20.333 0 0 0 1.457-3.519l3.627-.6a3.189 3.189 0 0 0 2.666-3.152v-4.55a3.15 3.15 0 0 0-2.644-3.152zm-.248 7.7a.28.28 0 0 1-.237.281l-4.534.756a1.449 1.449 0 0 0-1.166 1.069 17.28 17.28 0 0 1-1.878 4.523 1.459 1.459 0 0 0 .065 1.587l2.669 3.751a.294.294 0 0 1-.032.367l-3.217 3.217a.274.274 0 0 1-.205.086.265.265 0 0 1-.162-.054l-3.746-2.666a1.459 1.459 0 0 0-1.587-.065 17.28 17.28 0 0 1-4.523 1.878 1.433 1.433 0 0 0-1.069 1.166l-.766 4.534a.28.28 0 0 1-.281.237h-4.547a.28.28 0 0 1-.281-.237l-.756-4.534a1.449 1.449 0 0 0-1.069-1.166 17.943 17.943 0 0 1-4.426-1.813 1.494 1.494 0 0 0-.734-.194 1.422 1.422 0 0 0-.842.27l-3.777 2.688a.321.321 0 0 1-.162.054.289.289 0 0 1-.205-.086L8.1 40.545a.293.293 0 0 1-.032-.367l2.655-3.724a1.478 1.478 0 0 0 .065-1.6 17.117 17.117 0 0 1-1.9-4.512 1.478 1.478 0 0 0-1.166-1.069l-4.57-.773a.28.28 0 0 1-.237-.281v-4.546a.28.28 0 0 1 .237-.281l4.5-.756a1.46 1.46 0 0 0 1.178-1.078 17.263 17.263 0 0 1 1.846-4.534 1.441 1.441 0 0 0-.076-1.576L7.912 11.67a.294.294 0 0 1 .032-.367l3.217-3.217A.274.274 0 0 1 11.367 8a.265.265 0 0 1 .162.054l3.724 2.655a1.478 1.478 0 0 0 1.6.065 17.118 17.118 0 0 1 4.512-1.9 1.478 1.478 0 0 0 1.069-1.166l.777-4.566a.28.28 0 0 1 .281-.237h4.545a.28.28 0 0 1 .281.237l.756 4.5a1.46 1.46 0 0 0 1.075 1.178 17.521 17.521 0 0 1 4.631 1.9 1.459 1.459 0 0 0 1.587-.065l3.724-2.677a.321.321 0 0 1 .162-.054.289.289 0 0 1 .205.086l3.217 3.217a.293.293 0 0 1 .032.367l-2.666 3.746a1.459 1.459 0 0 0-.065 1.587 17.28 17.28 0 0 1 1.878 4.523 1.433 1.433 0 0 0 1.166 1.069l4.534.766a.28.28 0 0 1 .237.281v4.544z" class="cls-1" data-name="Path 1400" transform="translate(0 -.001)"/>
        <path id="Path_1401" d="M147.251 136a11.151 11.151 0 1 0 11.149 11.152A11.158 11.158 0 0 0 147.251 136zm0 19.387a8.236 8.236 0 1 1 8.236-8.236 8.242 8.242 0 0 1-8.236 8.237z" class="cls-1" data-name="Path 1401" transform="translate(-121.409 -121.32)"/>
    </g>
</svg>
