<svg xmlns="http://www.w3.org/2000/svg" id="twitter" width="21.412" height="17.397" viewBox="0 0 21.412 17.397">
    <defs>
        <style>
            .cls-1{fill:#434343}
        </style>
    </defs>
    <g id="Group_965" data-name="Group 965">
        <path id="Path_1262" d="M21.412 50.06a9.152 9.152 0 0 1-2.529.693 4.365 4.365 0 0 0 1.931-2.426 8.773 8.773 0 0 1-2.784 1.063 4.389 4.389 0 0 0-7.593 3 4.52 4.52 0 0 0 .1 1 12.425 12.425 0 0 1-9.046-4.59 4.391 4.391 0 0 0 1.349 5.867 4.335 4.335 0 0 1-1.983-.541v.048a4.41 4.41 0 0 0 3.517 4.313 4.381 4.381 0 0 1-1.151.145 3.881 3.881 0 0 1-.831-.075 4.431 4.431 0 0 0 4.1 3.058 8.82 8.82 0 0 1-5.443 1.872A8.219 8.219 0 0 1 0 63.427 12.358 12.358 0 0 0 6.734 65.4a12.408 12.408 0 0 0 12.494-12.494c0-.194-.007-.381-.016-.567a8.757 8.757 0 0 0 2.2-2.279z" class="cls-1" data-name="Path 1262" transform="translate(0 -48)"/>
    </g>
</svg>
